# Blender v2.92.0 OBJ File: 'flower.blend'
# www.blender.org
mtllib flower.mtl
v 0.000000 -0.100000 -0.010000
v -0.000000 0.100000 0.000000
v 0.007818 -0.100000 -0.006235
v -0.016486 0.057622 0.007504
v 0.009749 -0.100000 0.002225
v -0.013219 0.057622 0.011600
v 0.004339 -0.100000 0.009010
v -0.007979 0.057622 0.011600
v -0.004339 -0.100000 0.009010
v -0.004713 0.057622 0.007504
v -0.009749 -0.100000 0.002225
v -0.005878 0.057622 0.002395
v -0.007818 -0.100000 -0.006235
v -0.010599 0.057622 0.000122
v 0.002650 0.003089 -0.007464
v 0.010469 0.003089 -0.003698
v 0.012400 0.003089 0.004762
v 0.006989 0.003089 0.011546
v -0.001688 0.003089 0.011546
v -0.007099 0.003089 0.004762
v -0.005168 0.003089 -0.003698
v 0.004620 -0.055732 -0.010027
v 0.006551 -0.055732 -0.001567
v 0.001141 -0.055732 0.005218
v -0.007537 -0.055732 0.005218
v -0.012948 -0.055732 -0.001567
v -0.011017 -0.055732 -0.010027
v -0.003198 -0.055732 -0.013792
v -0.010599 0.057622 0.000122
v -0.005878 0.057622 0.002395
v -0.004713 0.057622 0.007504
v -0.007979 0.057622 0.011600
v -0.013219 0.057622 0.011600
v -0.016486 0.057622 0.007504
v -0.015320 0.057622 0.002395
v -0.015320 0.057622 0.002395
v -0.003028 0.111849 -0.025491
v -0.003142 0.105148 -0.036269
v -0.003072 0.098474 -0.044248
v -0.002827 0.092480 -0.048646
v -0.002429 0.087754 -0.049033
v -0.001919 0.084757 -0.045371
v -0.001346 0.083783 -0.038020
v -0.000766 0.084928 -0.027697
v -0.000236 0.088079 -0.015414
v 0.010360 0.116798 -0.017529
v 0.022325 0.114562 -0.021123
v 0.031980 0.111431 -0.023401
v 0.038379 0.107712 -0.024139
v 0.040897 0.103769 -0.023265
v 0.039287 0.099988 -0.020864
v 0.033706 0.096740 -0.017172
v 0.024701 0.094342 -0.012551
v 0.013153 0.093028 -0.007451
v 0.005739 0.122455 -0.002906
v 0.013535 0.125321 0.006690
v 0.019881 0.126239 0.014880
v 0.024157 0.125120 0.020864
v 0.025943 0.122073 0.024054
v 0.025064 0.117397 0.024138
v 0.021607 0.111548 0.021109
v 0.015911 0.105100 0.015262
v 0.008532 0.098684 0.007171
v -0.002744 0.117922 -0.012969
v -0.010506 0.121001 -0.001832
v -0.017364 0.122556 0.008733
v -0.022648 0.122434 0.017693
v -0.025839 0.120647 0.024169
v -0.026626 0.117370 0.027529
v -0.024932 0.112924 0.027444
v -0.020922 0.107743 0.023921
v -0.014988 0.102336 0.017305
v -0.007713 0.097231 0.008245
v -0.015924 0.114447 -0.015791
v -0.027671 0.110089 -0.017817
v -0.036834 0.105274 -0.018851
v -0.042516 0.100475 -0.018790
v -0.044161 0.096159 -0.017641
v -0.041608 0.092751 -0.015516
v -0.035108 0.090584 -0.012622
v -0.025295 0.089869 -0.009245
v -0.013131 0.090677 -0.005713
v 0.000193 0.092928 -0.002373
vt 1.000000 0.875000
vt 0.857143 1.000000
vt 0.857143 0.875000
vt 0.714286 1.000000
vt 0.714286 0.875000
vt 0.571429 1.000000
vt 0.571429 0.875000
vt 0.428571 1.000000
vt 0.428571 0.875000
vt 0.285714 1.000000
vt 0.285714 0.875000
vt 0.142857 1.000000
vt 0.142857 0.875000
vt 0.000000 1.000000
vt 0.000000 0.875000
vt 0.750000 0.490000
vt 0.937640 0.399638
vt 0.983983 0.196595
vt 0.854132 0.033767
vt 0.645868 0.033767
vt 0.516017 0.196595
vt 0.562360 0.399638
vt 0.142857 0.625000
vt 0.142857 0.750000
vt 0.000000 0.750000
vt 0.000000 0.625000
vt 0.285714 0.625000
vt 0.285714 0.750000
vt 0.428571 0.625000
vt 0.428571 0.750000
vt 0.571429 0.625000
vt 0.571429 0.750000
vt 0.714286 0.625000
vt 0.714286 0.750000
vt 0.857143 0.625000
vt 0.857143 0.750000
vt 1.000000 0.625000
vt 1.000000 0.750000
vt 1.000000 0.500000
vt 0.857143 0.500000
vt 0.714286 0.500000
vt 0.571429 0.500000
vt 0.428571 0.500000
vt 0.285714 0.500000
vt 0.142857 0.500000
vt 0.000000 0.500000
vt 0.600000 0.200000
vt 0.600000 0.300000
vt 0.400000 0.300000
vt 0.400000 0.200000
vt 0.600000 0.500000
vt 0.600000 0.600000
vt 0.400000 0.600000
vt 0.400000 0.500000
vt 0.600000 0.800000
vt 0.600000 0.900000
vt 0.400000 0.900000
vt 0.400000 0.800000
vt 0.600000 0.100000
vt 0.400000 0.100000
vt 0.600000 0.400000
vt 0.400000 0.400000
vt 0.600000 0.700000
vt 0.400000 0.700000
vt 0.500000 0.000000
vt 0.500000 1.000000
vt 0.200000 0.600000
vt 0.200000 0.500000
vt 0.200000 0.900000
vt 0.200000 0.800000
vt 0.200000 0.200000
vt 0.200000 0.100000
vt 0.200000 0.400000
vt 0.200000 0.700000
vt 0.300000 0.000000
vt 0.200000 0.300000
vt 0.300000 1.000000
vt 0.100000 1.000000
vt 0.000000 0.900000
vt 0.000000 0.300000
vt 0.000000 0.200000
vt 0.000000 0.600000
vt 0.000000 0.500000
vt 0.000000 0.800000
vt 0.000000 0.100000
vt 0.000000 0.400000
vt 0.000000 0.700000
vt 0.100000 0.000000
vt 1.000000 0.300000
vt 1.000000 0.400000
vt 0.800000 0.400000
vt 0.800000 0.300000
vt 1.000000 0.600000
vt 1.000000 0.700000
vt 0.800000 0.700000
vt 0.800000 0.600000
vt 1.000000 0.900000
vt 0.900000 1.000000
vt 0.800000 0.900000
vt 1.000000 0.200000
vt 0.800000 0.200000
vt 1.000000 0.500000
vt 0.800000 0.500000
vt 1.000000 0.800000
vt 0.800000 0.800000
vt 1.000000 0.100000
vt 0.800000 0.100000
vt 0.900000 0.000000
vt 0.700000 0.000000
vt 0.700000 1.000000
vn 0.4312 -0.1104 -0.8955
vn 0.9644 -0.1462 -0.2201
vn 0.7816 0.0234 0.6233
vn -0.0000 0.2640 0.9645
vn -0.7222 0.3829 0.5760
vn -0.9231 0.3218 -0.2107
vn -0.4315 0.1053 -0.8960
vn 0.0000 -1.0000 -0.0000
vn -0.4297 0.1387 -0.8923
vn -0.9679 0.1200 -0.2209
vn -0.7818 0.0107 0.6235
vn -0.0000 -0.1070 0.9943
vn 0.7738 -0.1433 0.6171
vn 0.9723 -0.0728 -0.2219
vn 0.4333 0.0537 -0.8997
vn 0.4334 -0.0458 -0.9000
vn 0.9736 0.0513 -0.2222
vn 0.7772 0.1092 0.6198
vn 0.0000 0.0854 0.9964
vn -0.7818 -0.0031 0.6235
vn -0.9710 -0.0891 -0.2216
vn -0.4314 -0.1079 -0.8957
vn -0.4338 0.0199 -0.9008
vn -0.9632 -0.1547 -0.2198
vn -0.7713 -0.1637 0.6151
vn -0.0000 -0.0010 1.0000
vn 0.7645 0.2093 0.6097
vn 0.9293 0.3023 -0.2121
vn 0.4228 0.2248 -0.8779
vn 0.2986 -0.9503 0.0886
vn 0.4772 0.1115 -0.8717
vn 0.0001 0.8492 -0.5280
vn 0.2114 -0.9489 0.2343
vn 0.5609 -0.6007 -0.5698
vn 0.0972 0.7638 -0.6381
vn 0.1408 -0.9295 0.3410
vn 0.4206 -0.8945 -0.1513
vn 0.2474 0.5798 -0.7763
vn -0.0739 0.8980 -0.4338
vn 0.8362 0.5458 0.0532
vn 0.0733 0.9377 -0.3396
vn 0.2846 -0.8604 0.4228
vn 0.9199 -0.1664 0.3551
vn 0.2340 0.9294 -0.2855
vn 0.1639 -0.9015 0.4005
vn 0.6517 -0.6151 0.4439
vn 0.4784 0.8592 -0.1812
vn -0.0508 0.9259 -0.3742
vn 0.4354 -0.7847 0.4412
vn -0.1058 0.9370 -0.3329
vn 0.1097 -0.7191 0.6862
vn -0.0182 0.7179 0.6959
vn -0.1008 0.9728 -0.2086
vn 0.1105 -0.8253 0.5537
vn 0.0655 0.0057 0.9978
vn -0.0917 0.9950 -0.0405
vn 0.1089 -0.8904 0.4419
vn 0.1018 -0.5043 0.8575
vn -0.0714 0.9700 0.2324
vn -0.4690 -0.7153 0.5180
vn -0.6423 0.7590 -0.1071
vn -0.1629 0.9159 -0.3668
vn -0.2285 -0.8441 0.4851
vn -0.9053 0.3900 0.1683
vn -0.2816 0.9060 -0.3161
vn -0.0703 -0.8922 0.4462
vn -0.8216 -0.3222 0.4702
vn -0.4299 0.8700 -0.2416
vn 0.0518 -0.9115 0.4079
vn -0.3131 0.7271 -0.6110
vn 0.0715 -0.9357 0.3456
vn -0.2720 -0.9565 -0.1055
vn -0.4452 0.5178 -0.7305
vn -0.1432 0.8918 -0.4292
vn -0.1117 -0.9870 0.1157
vn -0.5991 0.0152 -0.8005
vn -0.2192 0.8296 -0.5135
vn -0.0079 -0.9685 0.2488
vn -0.5154 -0.6969 -0.4986
usemtl Stem
s off
f 29/1/1 2/2/1 30/3/1
f 30/3/2 2/4/2 31/5/2
f 31/5/3 2/6/3 32/7/3
f 32/7/4 2/8/4 33/9/4
f 33/9/5 2/10/5 34/11/5
f 34/11/6 2/12/6 35/13/6
f 35/13/7 2/14/7 29/15/7
f 1/16/8 3/17/8 5/18/8 7/19/8 9/20/8 11/21/8 13/22/8
f 27/23/9 21/24/9 15/25/9 28/26/9
f 26/27/10 20/28/10 21/24/10 27/23/10
f 25/29/11 19/30/11 20/28/11 26/27/11
f 24/31/12 18/32/12 19/30/12 25/29/12
f 23/33/13 17/34/13 18/32/13 24/31/13
f 22/35/14 16/36/14 17/34/14 23/33/14
f 28/37/15 15/38/15 16/36/15 22/35/15
f 1/39/16 28/37/16 22/35/16 3/40/16
f 3/40/17 22/35/17 23/33/17 5/41/17
f 5/41/18 23/33/18 24/31/18 7/42/18
f 7/42/19 24/31/19 25/29/19 9/43/19
f 9/43/20 25/29/20 26/27/20 11/44/20
f 11/44/21 26/27/21 27/23/21 13/45/21
f 13/45/22 27/23/22 28/26/22 1/46/22
f 21/24/23 35/13/23 29/15/23 15/25/23
f 20/28/24 34/11/24 35/13/24 21/24/24
f 19/30/25 33/9/25 34/11/25 20/28/25
f 18/32/26 32/7/26 33/9/26 19/30/26
f 17/34/27 31/5/27 32/7/27 18/32/27
f 16/36/28 30/3/28 31/5/28 17/34/28
f 15/38/29 29/1/29 30/3/29 16/36/29
usemtl Iris
f 44/47/30 43/48/30 52/49/30 53/50/30
f 41/51/31 40/52/31 49/53/31 50/54/31
f 38/55/32 37/56/32 46/57/32 47/58/32
f 45/59/33 44/47/33 53/50/33 54/60/33
f 42/61/34 41/51/34 50/54/34 51/62/34
f 39/63/35 38/55/35 47/58/35 48/64/35
f 83/65/36 45/59/36 54/60/36
f 43/48/37 42/61/37 51/62/37 52/49/37
f 40/52/38 39/63/38 48/64/38 49/53/38
f 37/56/39 64/66/39 46/57/39
f 50/54/40 49/53/40 58/67/40 59/68/40
f 47/58/41 46/57/41 55/69/41 56/70/41
f 54/60/42 53/50/42 62/71/42 63/72/42
f 51/62/43 50/54/43 59/68/43 60/73/43
f 48/64/44 47/58/44 56/70/44 57/74/44
f 83/75/45 54/60/45 63/72/45
f 52/49/46 51/62/46 60/73/46 61/76/46
f 49/53/47 48/64/47 57/74/47 58/67/47
f 46/57/48 64/77/48 55/69/48
f 53/50/49 52/49/49 61/76/49 62/71/49
f 55/69/50 64/78/50 65/79/50
f 62/71/51 61/76/51 71/80/51 72/81/51
f 59/68/52 58/67/52 68/82/52 69/83/52
f 56/70/53 55/69/53 65/79/53 66/84/53
f 63/72/54 62/71/54 72/81/54 73/85/54
f 60/73/55 59/68/55 69/83/55 70/86/55
f 57/74/56 56/70/56 66/84/56 67/87/56
f 83/88/57 63/72/57 73/85/57
f 61/76/58 60/73/58 70/86/58 71/80/58
f 58/67/59 57/74/59 67/87/59 68/82/59
f 71/89/60 70/90/60 79/91/60 80/92/60
f 68/93/61 67/94/61 76/95/61 77/96/61
f 65/97/62 64/98/62 74/99/62
f 72/100/63 71/89/63 80/92/63 81/101/63
f 69/102/64 68/93/64 77/96/64 78/103/64
f 66/104/65 65/97/65 74/99/65 75/105/65
f 73/106/66 72/100/66 81/101/66 82/107/66
f 70/90/67 69/102/67 78/103/67 79/91/67
f 67/94/68 66/104/68 75/105/68 76/95/68
f 83/108/69 73/106/69 82/107/69
f 76/95/70 75/105/70 38/55/70 39/63/70
f 83/109/71 82/107/71 45/59/71
f 80/92/72 79/91/72 42/61/72 43/48/72
f 77/96/73 76/95/73 39/63/73 40/52/73
f 74/99/74 64/110/74 37/56/74
f 81/101/75 80/92/75 43/48/75 44/47/75
f 78/103/76 77/96/76 40/52/76 41/51/76
f 75/105/77 74/99/77 37/56/77 38/55/77
f 82/107/78 81/101/78 44/47/78 45/59/78
f 79/91/79 78/103/79 41/51/79 42/61/79
l 14 12
l 12 10
l 10 8
l 8 6
l 6 4
l 4 36
l 36 14
v -0.005682 0.138509 0.172811
v -0.005676 0.149826 0.170813
v 0.026966 0.133025 0.141862
v 0.026973 0.144343 0.139864
v 0.037647 0.120301 0.069843
v 0.037653 0.131619 0.067844
v 0.018317 0.109917 0.010986
v 0.018323 0.121235 0.008987
v -0.016468 0.109694 0.009611
v -0.016462 0.121011 0.007612
v -0.040514 0.119798 0.066754
v -0.040508 0.131116 0.064755
v -0.035714 0.132622 0.139385
v -0.035708 0.143940 0.137386
vt 1.000000 0.500000
vt 0.857143 0.500000
vt 0.857143 1.000000
vt 1.000000 1.000000
vt 0.714286 0.500000
vt 0.714286 1.000000
vt 0.571429 0.500000
vt 0.571429 1.000000
vt 0.428571 0.500000
vt 0.428571 1.000000
vt 0.285714 0.500000
vt 0.285714 1.000000
vt 0.437640 0.399638
vt 0.483983 0.196595
vt 0.354132 0.033767
vt 0.145868 0.033767
vt 0.016017 0.196595
vt 0.062360 0.399638
vt 0.250000 0.490000
vt 0.142857 0.500000
vt 0.142857 1.000000
vt 0.000000 0.500000
vt 0.000000 1.000000
vt 0.750000 0.490000
vt 0.562360 0.399638
vt 0.516017 0.196595
vt 0.645868 0.033767
vt 0.854132 0.033767
vt 0.983983 0.196595
vt 0.937640 0.399638
vn 0.6935 0.1249 0.7095
vn 0.9895 0.0246 0.1424
vn 0.9515 -0.0540 -0.3030
vn 0.0400 -0.1738 -0.9840
vn -0.9238 -0.0661 -0.3771
vn 0.0005 0.9848 -0.1739
vn -0.9979 0.0118 0.0639
vn -0.7489 0.1156 0.6525
vn -0.0005 -0.9848 0.1739
usemtl None
s off
f 84/111/80 86/112/80 87/113/80 85/114/80
f 86/112/81 88/115/81 89/116/81 87/113/81
f 88/115/82 90/117/82 91/118/82 89/116/82
f 90/117/83 92/119/83 93/120/83 91/118/83
f 92/119/84 94/121/84 95/122/84 93/120/84
f 87/123/85 89/124/85 91/125/85 93/126/85 95/127/85 97/128/85 85/129/85
f 94/121/86 96/130/86 97/131/86 95/122/86
f 96/130/87 84/132/87 85/133/87 97/131/87
f 84/134/88 96/135/88 94/136/88 92/137/88 90/138/88 88/139/88 86/140/88
v 0.190412 0.111733 0.024391
v 0.190310 0.123063 0.022467
v 0.162849 0.105472 -0.011034
v 0.162747 0.116802 -0.012958
v 0.091380 0.101698 -0.029492
v 0.091278 0.113028 -0.031416
v 0.029823 0.103253 -0.017084
v 0.029721 0.114583 -0.019007
v 0.024531 0.108966 0.016847
v 0.024430 0.120296 0.014924
v 0.079490 0.114535 0.046750
v 0.079388 0.125865 0.044826
v 0.153314 0.115767 0.050107
v 0.153212 0.127097 0.048184
vt 1.000000 0.500000
vt 0.857143 0.500000
vt 0.857143 1.000000
vt 1.000000 1.000000
vt 0.714286 0.500000
vt 0.714286 1.000000
vt 0.571429 0.500000
vt 0.571429 1.000000
vt 0.428571 0.500000
vt 0.428571 1.000000
vt 0.285714 0.500000
vt 0.285714 1.000000
vt 0.437640 0.399638
vt 0.483983 0.196595
vt 0.354132 0.033767
vt 0.145868 0.033767
vt 0.016017 0.196595
vt 0.062360 0.399638
vt 0.250000 0.490000
vt 0.142857 0.500000
vt 0.142857 1.000000
vt 0.000000 0.500000
vt 0.000000 1.000000
vt 0.750000 0.490000
vt 0.562360 0.399638
vt 0.516017 0.196595
vt 0.645868 0.033767
vt 0.854132 0.033767
vt 0.983983 0.196595
vt 0.937640 0.399638
vn 0.7937 -0.0949 -0.6008
vn 0.2547 -0.1596 -0.9537
vn -0.1989 -0.1658 -0.9659
vn -0.9883 -0.0341 -0.1484
vn -0.4842 0.1422 0.8633
vn -0.0088 0.9859 -0.1674
vn -0.0476 0.1668 0.9848
vn 0.5743 0.1420 0.8062
vn 0.0088 -0.9859 0.1674
usemtl None
s off
f 98/141/89 100/142/89 101/143/89 99/144/89
f 100/142/90 102/145/90 103/146/90 101/143/90
f 102/145/91 104/147/91 105/148/91 103/146/91
f 104/147/92 106/149/92 107/150/92 105/148/92
f 106/149/93 108/151/93 109/152/93 107/150/93
f 101/153/94 103/154/94 105/155/94 107/156/94 109/157/94 111/158/94 99/159/94
f 108/151/95 110/160/95 111/161/95 109/152/95
f 110/160/96 98/162/96 99/163/96 111/161/96
f 98/164/97 110/165/97 108/166/97 106/167/97 104/168/97 102/169/97 100/170/97
v 0.104533 0.099560 -0.170442
v 0.100769 0.110274 -0.172210
v 0.062546 0.086647 -0.159296
v 0.058782 0.097361 -0.161063
v 0.016823 0.080103 -0.101595
v 0.013059 0.090817 -0.103363
v 0.001794 0.084855 -0.040791
v -0.001970 0.095568 -0.042558
v 0.028776 0.097324 -0.022669
v 0.025012 0.108038 -0.024436
v 0.077452 0.108122 -0.060876
v 0.073688 0.118836 -0.062644
v 0.111166 0.109117 -0.126641
v 0.107402 0.119831 -0.128409
vt 1.000000 0.500000
vt 0.857143 0.500000
vt 0.857143 1.000000
vt 1.000000 1.000000
vt 0.714286 0.500000
vt 0.714286 1.000000
vt 0.571429 0.500000
vt 0.571429 1.000000
vt 0.428571 0.500000
vt 0.428571 1.000000
vt 0.285714 0.500000
vt 0.285714 1.000000
vt 0.437640 0.399638
vt 0.483983 0.196595
vt 0.354132 0.033767
vt 0.145868 0.033767
vt 0.016017 0.196595
vt 0.062360 0.399638
vt 0.250000 0.490000
vt 0.142857 0.500000
vt 0.142857 1.000000
vt 0.000000 0.500000
vt 0.000000 1.000000
vt 0.750000 0.490000
vt 0.562360 0.399638
vt 0.516017 0.196595
vt 0.645868 0.033767
vt 0.854132 0.033767
vt 0.983983 0.196595
vt 0.937640 0.399638
vn -0.1855 -0.2230 -0.9570
vn -0.7142 -0.3508 -0.6057
vn -0.9140 -0.3538 -0.1983
vn -0.5404 -0.0513 0.8399
vn 0.5406 0.3184 0.7787
vn -0.3275 0.9322 -0.1538
vn 0.8274 0.3616 0.4297
vn 0.9334 0.2940 -0.2055
vn 0.3275 -0.9322 0.1538
usemtl None
s off
f 112/171/98 114/172/98 115/173/98 113/174/98
f 114/172/99 116/175/99 117/176/99 115/173/99
f 116/175/100 118/177/100 119/178/100 117/176/100
f 118/177/101 120/179/101 121/180/101 119/178/101
f 120/179/102 122/181/102 123/182/102 121/180/102
f 115/183/103 117/184/103 119/185/103 121/186/103 123/187/103 125/188/103 113/189/103
f 122/181/104 124/190/104 125/191/104 123/182/104
f 124/190/105 112/192/105 113/193/105 125/191/105
f 112/194/106 124/195/106 122/196/106 120/197/106 118/198/106 116/199/106 114/200/106
v -0.108683 -0.002024 -0.117608
v -0.111491 0.007152 -0.123932
v -0.114166 0.022356 -0.079800
v -0.116974 0.031532 -0.086124
v -0.077671 0.066025 -0.032642
v -0.080479 0.075201 -0.038966
v -0.026678 0.096100 -0.011646
v -0.029486 0.105276 -0.017970
v 0.000414 0.089934 -0.032621
v -0.002394 0.099110 -0.038945
v -0.016796 0.052170 -0.079773
v -0.019604 0.061346 -0.086097
v -0.065349 0.011245 -0.117596
v -0.068157 0.020421 -0.123920
vt 1.000000 0.500000
vt 0.857143 0.500000
vt 0.857143 1.000000
vt 1.000000 1.000000
vt 0.714286 0.500000
vt 0.714286 1.000000
vt 0.571429 0.500000
vt 0.571429 1.000000
vt 0.428571 0.500000
vt 0.428571 1.000000
vt 0.285714 0.500000
vt 0.285714 1.000000
vt 0.437640 0.399638
vt 0.483983 0.196595
vt 0.354132 0.033767
vt 0.145868 0.033767
vt 0.016017 0.196595
vt 0.062360 0.399638
vt 0.250000 0.490000
vt 0.142857 0.500000
vt 0.142857 1.000000
vt 0.000000 0.500000
vt 0.000000 1.000000
vt 0.750000 0.490000
vt 0.562360 0.399638
vt 0.516017 0.196595
vt 0.645868 0.033767
vt 0.854132 0.033767
vt 0.983983 0.196595
vt 0.937640 0.399638
vn -0.9621 -0.2704 0.0348
vn -0.8346 0.1158 0.5386
vn -0.5304 0.3651 0.7652
vn 0.5785 0.5754 0.5781
vn 0.9302 0.0326 -0.3657
vn -0.2443 0.7984 -0.5503
vn 0.7133 -0.2365 -0.6598
vn 0.1613 -0.5261 -0.8350
vn 0.2443 -0.7984 0.5503
usemtl None
s off
f 126/201/107 128/202/107 129/203/107 127/204/107
f 128/202/108 130/205/108 131/206/108 129/203/108
f 130/205/109 132/207/109 133/208/109 131/206/109
f 132/207/110 134/209/110 135/210/110 133/208/110
f 134/209/111 136/211/111 137/212/111 135/210/111
f 129/213/112 131/214/112 133/215/112 135/216/112 137/217/112 139/218/112 127/219/112
f 136/211/113 138/220/113 139/221/113 137/212/113
f 138/220/114 126/222/114 127/223/114 139/221/114
f 126/224/115 138/225/115 136/226/115 134/227/115 132/228/115 130/229/115 128/230/115
v -0.183871 0.120472 0.061623
v -0.184112 0.131051 0.057138
v -0.141538 0.127595 0.076150
v -0.141778 0.138173 0.071664
v -0.070834 0.120572 0.055793
v -0.071074 0.131151 0.051308
v -0.025001 0.104692 0.015883
v -0.025241 0.115271 0.011398
v -0.038552 0.091913 -0.013528
v -0.038792 0.102492 -0.018013
v -0.101283 0.091858 -0.010292
v -0.101523 0.102436 -0.014778
v -0.165956 0.104568 0.023153
v -0.166197 0.115146 0.018668
vt 1.000000 0.500000
vt 0.857143 0.500000
vt 0.857143 1.000000
vt 1.000000 1.000000
vt 0.714286 0.500000
vt 0.714286 1.000000
vt 0.571429 0.500000
vt 0.571429 1.000000
vt 0.428571 0.500000
vt 0.428571 1.000000
vt 0.285714 0.500000
vt 0.285714 1.000000
vt 0.437640 0.399638
vt 0.483983 0.196595
vt 0.354132 0.033767
vt 0.145868 0.033767
vt 0.016017 0.196595
vt 0.062360 0.399638
vt 0.250000 0.490000
vt 0.142857 0.500000
vt 0.142857 1.000000
vt 0.000000 0.500000
vt 0.000000 1.000000
vt 0.750000 0.490000
vt 0.562360 0.399638
vt 0.516017 0.196595
vt 0.645868 0.033767
vt 0.854132 0.033767
vt 0.983983 0.196595
vt 0.937640 0.399638
vn -0.3564 0.3579 0.8631
vn 0.2906 0.3791 0.8785
vn 0.6835 0.2981 0.6663
vn 0.9209 -0.1342 -0.3660
vn -0.0471 -0.3908 -0.9193
vn -0.0209 0.9205 -0.3903
vn -0.4836 -0.3510 -0.8018
vn -0.9183 -0.1721 -0.3565
vn 0.0209 -0.9205 0.3903
usemtl None
s off
f 140/231/116 142/232/116 143/233/116 141/234/116
f 142/232/117 144/235/117 145/236/117 143/233/117
f 144/235/118 146/237/118 147/238/118 145/236/118
f 146/237/119 148/239/119 149/240/119 147/238/119
f 148/239/120 150/241/120 151/242/120 149/240/120
f 143/243/121 145/244/121 147/245/121 149/246/121 151/247/121 153/248/121 141/249/121
f 150/241/122 152/250/122 153/251/122 151/242/122
f 152/250/123 140/252/123 141/253/123 153/251/123
f 140/254/124 152/255/124 150/256/124 148/257/124 146/258/124 144/259/124 142/260/124
